<svg width="64" height="64" viewBox="0 0 64 64" xmlns="http://www.w3.org/2000/svg">
  <defs>
    <radialGradient id="circleGradient" cx="50%" cy="30%">
      <stop offset="0%" stop-color="#4338ca"/>
      <stop offset="100%" stop-color="#1e1b4b"/>
    </radialGradient>
    <radialGradient id="innerGradient" cx="50%" cy="30%">
      <stop offset="0%" stop-color="#fbbf24"/>
      <stop offset="100%" stop-color="#d97706"/>
    </radialGradient>
    <linearGradient id="crownGradient" x1="0%" y1="0%" x2="100%" y2="100%">
      <stop offset="0%" stop-color="#fbbf24"/>
      <stop offset="50%" stop-color="#f59e0b"/>
      <stop offset="100%" stop-color="#d97706"/>
    </linearGradient>
    <linearGradient id="purpleGradient" x1="0%" y1="0%" x2="100%" y2="100%">
      <stop offset="0%" stop-color="#7c3aed"/>
      <stop offset="100%" stop-color="#5b21b6"/>
    </linearGradient>
  </defs>
  
  <!-- Outer Blue Circle -->
  <circle cx="32" cy="32" r="30" fill="url(#circleGradient)" stroke="#1e40af" stroke-width="1"/>
  
  <!-- Inner Gold Circle -->
  <circle cx="32" cy="32" r="22" fill="url(#innerGradient)"/>
  
  <!-- White Triangle Background -->
  <path d="M32 13 L51 38 L13 38 Z" fill="white" stroke="#d1d5db" stroke-width="0.5"/>
  
  <!-- Open Book -->
  <g transform="translate(32, 45)">
    <path d="M-6 -3 Q-6 -4 -5 -4 L5 -4 Q6 -4 6 -3 L6 2 Q6 3 5 3 L1 3 L0 3 L-1 3 L-5 3 Q-6 3 -6 2 Z" 
          fill="#8b5cf6" stroke="#7c3aed" stroke-width="0.3"/>
    <!-- Book pages -->
    <line x1="-4" y1="-2" x2="4" y2="-2" stroke="#e5e7eb" stroke-width="0.3"/>
    <line x1="-4" y1="-1" x2="4" y2="-1" stroke="#e5e7eb" stroke-width="0.3"/>
    <line x1="-4" y1="0" x2="4" y2="0" stroke="#e5e7eb" stroke-width="0.3"/>
    <line x1="-4" y1="1" x2="4" y2="1" stroke="#e5e7eb" stroke-width="0.3"/>
  </g>
  
  <!-- Crown -->
  <g transform="translate(32, 26)">
    <!-- Crown base -->
    <ellipse cx="0" cy="2" rx="7" ry="1" fill="url(#crownGradient)"/>
    
    <!-- Crown main body -->
    <path d="M-6 0 Q-6 -2 -5 -2 L-4 -3 L-2 -1 L-1 -4 L1 -4 L2 -1 L4 -3 L5 -2 Q6 -2 6 0 L6 2 L-6 2 Z" 
          fill="url(#crownGradient)" stroke="#d97706" stroke-width="0.2"/>
    
    <!-- Crown velvet interior -->
    <path d="M-5 0 L-3 -1 L-1 -1 L0 -3 L1 -1 L3 -1 L5 0 L5 2 L-5 2 Z" 
          fill="url(#purpleGradient)"/>
    
    <!-- Crown jewels -->
    <circle cx="-3" cy="-1" r="0.5" fill="#dc2626"/>
    <circle cx="0" cy="-2" r="0.6" fill="#dc2626"/>
    <circle cx="3" cy="-1" r="0.5" fill="#dc2626"/>
    <circle cx="-1" cy="0" r="0.3" fill="#fbbf24"/>
    <circle cx="1" cy="0" r="0.3" fill="#fbbf24"/>
    
    <!-- Cross on top -->
    <g transform="translate(0, -4)">
      <rect x="-0.3" y="-1" width="0.6" height="1.5" fill="url(#crownGradient)" rx="0.1"/>
      <rect x="-1" y="-0.3" width="2" height="0.6" fill="url(#crownGradient)" rx="0.1"/>
    </g>
  </g>
</svg>
